<svg width="132" height="56" viewBox="0 0 132 56" fill="none" xmlns="http://www.w3.org/2000/svg">
<path d="M15.7568 1.36355C18.9429 1.36355 21.7271 2.00312 24.1094 3.28224C26.4918 4.56136 28.3288 6.36376 29.6204 8.68944C30.9408 10.986 31.6009 13.646 31.6009 16.6694C31.6009 19.6637 30.9408 22.3237 29.6204 24.6494C28.3288 26.9751 26.4774 28.7775 24.0664 30.0566C21.684 31.3357 18.9142 31.9753 15.7568 31.9753H4.43347V1.36355H15.7568ZM15.2832 25.5215C18.0674 25.5215 20.2345 24.7512 21.7845 23.2104C23.3344 21.6696 24.1094 19.4893 24.1094 16.6694C24.1094 13.8495 23.3344 11.6547 21.7845 10.0848C20.2345 8.51501 18.0674 7.73009 15.2832 7.73009H11.7958V25.5215H15.2832Z" fill="white"/>
<path d="M49.5359 7.33764V13.5298H59.3954V19.2858H49.5359V26.0012H60.687V31.9753H42.1735V1.36355H60.687V7.33764H49.5359Z" fill="white"/>
<path d="M82.8608 32.2805C80.6507 32.2805 78.6701 31.9171 76.9193 31.1904C75.1684 30.4636 73.7619 29.388 72.6999 27.9635C71.6666 26.539 71.1212 24.8238 71.0638 22.8179H78.8998C79.0146 23.9517 79.4021 24.8238 80.0622 25.4343C80.7224 26.0157 81.5835 26.3064 82.6455 26.3064C83.7362 26.3064 84.5973 26.0593 85.2288 25.5651C85.8603 25.0419 86.176 24.3296 86.176 23.4284C86.176 22.6726 85.9177 22.0475 85.401 21.5533C84.9131 21.0591 84.2959 20.6521 83.5497 20.3324C82.8321 20.0126 81.7988 19.6492 80.4497 19.2422C78.4979 18.6317 76.9049 18.0212 75.6707 17.4107C74.4364 16.8002 73.3744 15.899 72.4846 14.7071C71.5948 13.5152 71.1499 11.9599 71.1499 10.0412C71.1499 7.19228 72.1689 4.96835 74.2068 3.36945C76.2447 1.74148 78.8998 0.92749 82.1719 0.92749C85.5015 0.92749 88.1852 1.74148 90.2231 3.36945C92.261 4.96835 93.3518 7.20682 93.4953 10.0848H85.5302C85.4728 9.09643 85.114 8.32605 84.4538 7.7737C83.7936 7.19228 82.9469 6.90157 81.9136 6.90157C81.0238 6.90157 80.3062 7.14868 79.7609 7.64288C79.2155 8.10802 78.9428 8.79119 78.9428 9.69239C78.9428 10.6808 79.4021 11.4512 80.3206 12.0035C81.2391 12.5559 82.6742 13.1518 84.626 13.7914C86.5778 14.46 88.1565 15.0996 89.362 15.7101C90.5963 16.3206 91.6583 17.2072 92.5481 18.3701C93.4379 19.5329 93.8828 21.0301 93.8828 22.8615C93.8828 24.6058 93.4379 26.1902 92.5481 27.6146C91.687 29.0391 90.424 30.1729 88.7593 31.0159C87.0945 31.859 85.1283 32.2805 82.8608 32.2805Z" fill="white"/>
<path d="M122.395 31.9753L112.234 18.4573V31.9753H104.872V1.36355H112.234V14.7943L122.309 1.36355H130.963L119.252 16.3642L131.393 31.9753H122.395Z" fill="white"/>
<path d="M13.8136 48.4326C13.8136 49.302 13.5176 50.0265 12.9256 50.6061C12.3435 51.1758 11.4505 51.4606 10.2468 51.4606H8.2636V55.8226H6.9168V45.3747H10.2468C11.4111 45.3747 12.2941 45.6595 12.896 46.2291C13.5077 46.7988 13.8136 47.5332 13.8136 48.4326ZM10.2468 50.3363C10.9967 50.3363 11.5492 50.1714 11.9044 49.8417C12.2596 49.5119 12.4372 49.0422 12.4372 48.4326C12.4372 47.1435 11.7071 46.499 10.2468 46.499H8.2636V50.3363H10.2468Z" fill="white"/>
<path d="M46.4344 54.7133H50.0456V55.8226H45.0876V45.3747H46.4344V54.7133Z" fill="white"/>
<path d="M82.3931 45.3747V51.9852C82.3931 52.9146 82.6151 53.6041 83.0591 54.0538C83.5129 54.5035 84.1395 54.7283 84.9387 54.7283C85.728 54.7283 86.3447 54.5035 86.7887 54.0538C87.2426 53.6041 87.4695 52.9146 87.4695 51.9852V45.3747H88.8163V51.9702C88.8163 52.8396 88.6436 53.5741 88.2983 54.1737C87.9529 54.7633 87.4843 55.203 86.8923 55.4928C86.3102 55.7826 85.654 55.9275 84.9239 55.9275C84.1937 55.9275 83.5327 55.7826 82.9407 55.4928C82.3586 55.203 81.8948 54.7633 81.5495 54.1737C81.214 53.5741 81.0463 52.8396 81.0463 51.9702V45.3747H82.3931Z" fill="white"/>
<path d="M123.934 55.9275C123.253 55.9275 122.641 55.8076 122.099 55.5677C121.566 55.3179 121.146 54.9781 120.841 54.5484C120.535 54.1087 120.377 53.6041 120.367 53.0345H121.803C121.852 53.5241 122.049 53.9389 122.395 54.2786C122.75 54.6084 123.263 54.7733 123.934 54.7733C124.575 54.7733 125.078 54.6134 125.443 54.2936C125.818 53.9638 126.006 53.5441 126.006 53.0345C126.006 52.6348 125.897 52.31 125.68 52.0601C125.463 51.8103 125.192 51.6204 124.866 51.4905C124.541 51.3606 124.102 51.2207 123.549 51.0708C122.868 50.8909 122.321 50.7111 121.906 50.5312C121.502 50.3513 121.151 50.0715 120.855 49.6918C120.569 49.302 120.426 48.7824 120.426 48.1328C120.426 47.5632 120.569 47.0586 120.855 46.6189C121.142 46.1792 121.541 45.8394 122.054 45.5996C122.577 45.3597 123.174 45.2398 123.845 45.2398C124.812 45.2398 125.601 45.4847 126.213 45.9743C126.835 46.464 127.185 47.1135 127.264 47.923H125.784C125.735 47.5233 125.527 47.1735 125.162 46.8737C124.797 46.5639 124.314 46.409 123.712 46.409C123.149 46.409 122.691 46.5589 122.335 46.8587C121.98 47.1485 121.803 47.5582 121.803 48.0879C121.803 48.4676 121.906 48.7774 122.113 49.0172C122.331 49.2571 122.592 49.4419 122.898 49.5718C123.214 49.6918 123.653 49.8317 124.215 49.9916C124.896 50.1814 125.443 50.3713 125.858 50.5612C126.272 50.7411 126.627 51.0259 126.923 51.4156C127.219 51.7953 127.367 52.315 127.367 52.9745C127.367 53.4842 127.234 53.9638 126.968 54.4135C126.701 54.8632 126.307 55.228 125.784 55.5078C125.261 55.7876 124.644 55.9275 123.934 55.9275Z" fill="white"/>
<path d="M0.393402 13.5788H15.8661V19.711H0.393402V13.5788Z" fill="white"/>
</svg>
